<svg xmlns="http://www.w3.org/2000/svg" viewBox="0 0 600 900"><defs><linearGradient id="bg" x2="0" y2="1"><stop stop-color="#071322"/><stop offset=".58" stop-color="#111c2b"/><stop offset="1" stop-color="#05070c"/></linearGradient><radialGradient id="sun"><stop stop-color="#f4d27b" stop-opacity=".8"/><stop offset="1" stop-color="#f4d27b" stop-opacity="0"/></radialGradient><linearGradient id="gold"><stop stop-color="#fff0ad"/><stop offset="1" stop-color="#b7893e"/></linearGradient></defs><rect width="600" height="900" fill="url(#bg)"/><circle cx="430" cy="205" r="190" fill="url(#sun)"/><g fill="none" stroke="url(#gold)" stroke-width="7" opacity=".88"><circle cx="430" cy="205" r="104"/><circle cx="430" cy="205" r="68"/><path d="M430 101v208M326 205h208M356 131l148 148M504 131L356 279"/></g><g fill="#080b12"><path d="M0 560l90-100 58 48 78-100 78 88 75-62 91 96 62-70 68 65v345H0z"/></g><g fill="none" stroke="#c79c51" stroke-width="3" opacity=".35"><path d="M70 650h460M70 690h460M70 730h460"/></g><g fill="#d6b36a" opacity=".8"><rect x="90" y="565" width="5" height="105"/><rect x="505" y="545" width="5" height="125"/></g><text x="58" y="735" fill="#d6b36a" font-family="Georgia,serif" font-size="19" letter-spacing="7">TALEFORGE ORIGINAL</text><text x="55" y="785" fill="#f5f1e8" font-family="Georgia,serif" font-size="51">THE</text><text x="55" y="840" fill="#f5f1e8" font-family="Georgia,serif" font-size="51">CLOCKWORK</text><text x="55" y="892" fill="#f5f1e8" font-family="Georgia,serif" font-size="51">SKY</text></svg>