<svg xmlns="http://www.w3.org/2000/svg" viewBox="0 0 600 900"><defs><linearGradient id="b" y2="1"><stop stop-color="#301523"/><stop offset=".6" stop-color="#120c15"/><stop offset="1" stop-color="#050509"/></linearGradient><radialGradient id="m"><stop stop-color="#f1ce76" stop-opacity=".55"/><stop offset="1" stop-color="#f1ce76" stop-opacity="0"/></radialGradient></defs><rect width="600" height="900" fill="url(#b)"/><circle cx="425" cy="175" r="185" fill="url(#m)"/><path d="M125 570V355l70-135 105 92 105-92 70 135v215z" fill="#0a080d" stroke="#d8b467" stroke-width="5"/><path d="M175 355l45-145 80 96 80-96 45 145-30 90H205z" fill="none" stroke="#efcb70" stroke-width="8"/><path d="M235 570h130v155H235z" fill="#171019"/><path d="M255 590h90v135h-90z" fill="#060609"/><path d="M0 610q80-70 160 0 80-80 160 0 80-75 160 0 70-65 120 0v190H0z" fill="#050509"/><text x="52" y="770" fill="#d6b36a" font-family="Georgia" font-size="17" letter-spacing="5">TALEFORGE ORIGINAL</text><text x="50" y="820" fill="#fff7e3" font-family="Georgia" font-size="46">THE HOLLOW</text><text x="50" y="866" fill="#fff7e3" font-family="Georgia" font-size="46">CROWN</text></svg>